<svg id="visual" viewBox="0 0 960 540" width="960" height="540" xmlns="http://www.w3.org/2000/svg" xmlns:xlink="http://www.w3.org/1999/xlink" version="1.1"><path d="M0 390L26.7 383.5C53.3 377 106.7 364 160 337C213.3 310 266.7 269 320 261.8C373.3 254.7 426.7 281.3 480 293.8C533.3 306.3 586.7 304.7 640 284.2C693.3 263.7 746.7 224.3 800 212.7C853.3 201 906.7 217 933.3 225L960 233L960 541L933.3 541C906.7 541 853.3 541 800 541C746.7 541 693.3 541 640 541C586.7 541 533.3 541 480 541C426.7 541 373.3 541 320 541C266.7 541 213.3 541 160 541C106.7 541 53.3 541 26.7 541L0 541Z" fill="#2b2b2f" stroke-linecap="round" stroke-linejoin="miter"></path></svg>